<?xml version="1.0" encoding="UTF-8" standalone="no"?>
<!-- Created with Inkscape (http://www.inkscape.org/) -->

<svg
   xmlns:dc="http://purl.org/dc/elements/1.1/"
   xmlns:cc="http://creativecommons.org/ns#"
   xmlns:rdf="http://www.w3.org/1999/02/22-rdf-syntax-ns#"
   xmlns:svg="http://www.w3.org/2000/svg"
   xmlns="http://www.w3.org/2000/svg"
   xmlns:sodipodi="http://sodipodi.sourceforge.net/DTD/sodipodi-0.dtd"
   xmlns:inkscape="http://www.inkscape.org/namespaces/inkscape"
   id="svg2"
   version="1.1"
   inkscape:version="0.48.4 r9939"
   width="69%"
   height="69%"
   viewBox="0 0 1022.5 375"
   xml:space="preserve"
   sodipodi:docname="workflow.eps"><metadata
     id="metadata8"><rdf:RDF><cc:Work
         rdf:about=""><dc:format>image/svg+xml</dc:format><dc:type
           rdf:resource="http://purl.org/dc/dcmitype/StillImage" /><dc:title></dc:title></cc:Work></rdf:RDF></metadata><defs
     id="defs6" /><sodipodi:namedview
     pagecolor="#ffffff"
     bordercolor="#666666"
     borderopacity="1"
     objecttolerance="10"
     gridtolerance="10"
     guidetolerance="10"
     inkscape:pageopacity="0"
     inkscape:pageshadow="2"
     inkscape:window-width="1535"
     inkscape:window-height="876"
     id="namedview4"
     showgrid="false"
     inkscape:zoom="0.99859383"
     inkscape:cx="511.25"
     inkscape:cy="187.5"
     inkscape:window-x="65"
     inkscape:window-y="24"
     inkscape:window-maximized="1"
     inkscape:current-layer="g10" /><g
     id="g10"
     inkscape:groupmode="layer"
     inkscape:label="ink_ext_XXXXXX"
     transform="matrix(1.25,0,0,-1.25,0,375)"><g
       id="g12"
       transform="scale(0.1,0.1)"><path
         d="m 7231.84,2991.97 751.79,0 c 104.34,0 188.36,-84.02 188.36,-188.4 l 0,-2605.191 c 0,-104.3399 -84.02,-188.3595 -188.36,-188.3595 l -751.79,0 c -104.38,0 -188.4,84.0196 -188.4,188.3595 l 0,2605.191 c 0,104.38 84.02,188.4 188.4,188.4 z"
         style="fill:#f0f0ff;fill-opacity:1;fill-rule:nonzero;stroke:none"
         id="path14" /><path
         d="m 7244.1,2957.83 725.47,0 c 104.38,0 188.4,-73.91 188.4,-165.74 l 0,-68.56 c 0,-91.79 -84.02,-165.7 -188.4,-165.7 l -725.47,0 c -104.37,0 -188.4,73.91 -188.4,165.7 l 0,68.56 c 0,91.83 84.03,165.74 188.4,165.74 z"
         style="fill:#c8ebc8;fill-opacity:1;fill-rule:nonzero;stroke:none"
         id="path16" /><g
         id="g18"
         transform="scale(10,10)"><text
           transform="matrix(1,0,0,-1,708.371,265.411)"
           id="text20"><tspan
             style="fill:#000000;fill-opacity:1;fill-rule:nonzero;stroke:none;font-family:Verdana;font-variant:normal;font-weight:normal;font-size:26;writing-mode:lr;-inkscape-font-specification:Verdana"
             x="0 18.07 34.502 50.18 70.642 87.9838752"
             y="0"
             sodipodi:role="line"
             id="tspan22">REPORT</tspan></text>
</g><path
         d="m 5440.98,2991.97 1111.79,0 c 104.38,0 188.4,-84.02 188.4,-188.4 l 0,-2605.191 c 0,-104.3399 -84.02,-188.3595 -188.4,-188.3595 l -1111.79,0 c -104.38,0 -188.4,84.0196 -188.4,188.3595 l 0,2605.191 c 0,104.38 84.02,188.4 188.4,188.4 z"
         style="fill:#f0f0ff;fill-opacity:1;fill-rule:nonzero;stroke:none"
         id="path24" /><path
         d="m 5457.15,2957.83 1077.11,0 c 104.33,0 188.36,-73.91 188.36,-165.74 l 0,-68.56 c 0,-91.79 -84.03,-165.7 -188.36,-165.7 l -1077.11,0 c -104.34,0 -188.36,73.91 -188.36,165.7 l 0,68.56 c 0,91.83 84.02,165.74 188.36,165.74 z"
         style="fill:#c8ebc8;fill-opacity:1;fill-rule:nonzero;stroke:none"
         id="path26" /><g
         id="g28"
         transform="scale(10,10)"><text
           transform="matrix(1,0,0,-1,537.407,266.394)"
           id="text30"><tspan
             style="fill:#000000;fill-opacity:1;fill-rule:nonzero;stroke:none;font-family:Verdana;font-variant:normal;font-weight:normal;font-size:25;writing-mode:lr;-inkscape-font-specification:Verdana"
             x="0 17.1 35.8 52.9 64.875 80.25 97.35 107.875"
             y="0"
             sodipodi:role="line"
             id="tspan32">ANALYSIS</tspan></text>
</g><path
         d="m 3404.38,2991.97 1483.24,0 c 104.37,0 188.4,-84.02 188.4,-188.4 l 0,-2605.191 c 0,-104.3399 -84.03,-188.3595 -188.4,-188.3595 l -1483.24,0 c -104.34,0 -188.36,84.0196 -188.36,188.3595 l 0,2605.191 c 0,104.38 84.02,188.4 188.36,188.4 z"
         style="fill:#f0f0ff;fill-opacity:1;fill-rule:nonzero;stroke:none"
         id="path34" /><path
         d="m 3424.65,2957.83 1439.84,0 c 104.34,0 188.36,-73.91 188.36,-165.74 l 0,-68.56 c 0,-91.79 -84.02,-165.7 -188.36,-165.7 l -1439.84,0 c -104.38,0 -188.4,73.91 -188.4,165.7 l 0,68.56 c 0,91.83 84.02,165.74 188.4,165.74 z"
         style="fill:#c8ebc8;fill-opacity:1;fill-rule:nonzero;stroke:none"
         id="path36" /><g
         id="g38"
         transform="scale(10,10)"><text
           transform="matrix(1,0,0,-1,324.262,266.419)"
           id="text40"><tspan
             style="fill:#000000;fill-opacity:1;fill-rule:nonzero;stroke:none;font-family:Verdana;font-variant:normal;font-weight:normal;font-size:25;writing-mode:lr;-inkscape-font-specification:Verdana"
             x="0 21.075 38.175 56.875 73.975 93.35 109.15 130.225 146.10019525 164.80019525"
             y="0"
             sodipodi:role="line"
             id="tspan42">MANAGEMENT</tspan></text>
</g><path
         d="m 188.398,2991.97 2563.202,0 c 104.38,0 188.4,-84.02 188.4,-188.4 l 0,-2605.191 C 2940,94.0391 2855.98,10.0195 2751.6,10.0195 l -2563.202,0 C 84.0195,10.0195 0,94.0391 0,198.379 L 0,2803.57 c 0,104.38 84.0195,188.4 188.398,188.4 z"
         style="fill:#f0f0ff;fill-opacity:1;fill-rule:nonzero;stroke:none"
         id="path44" /><path
         d="m 220.391,2957.83 2494.649,0 c 104.37,0 188.4,-73.91 188.4,-165.74 l 0,-68.56 c 0,-91.79 -84.03,-165.7 -188.4,-165.7 l -2494.649,0 c -104.371,0 -188.4027,73.91 -188.4027,165.7 l 0,68.56 c 0,91.83 84.0317,165.74 188.4027,165.74 z"
         style="fill:#c8ebc8;fill-opacity:1;fill-rule:nonzero;stroke:none"
         id="path46" /><g
         id="g48"
         transform="scale(10,10)"><text
           transform="matrix(1,0,0,-1,21.3016,266.444)"
           id="text50"><tspan
             style="fill:#000000;fill-opacity:1;fill-rule:nonzero;stroke:none;font-family:Verdana;font-variant:normal;font-weight:normal;font-size:25;writing-mode:lr;-inkscape-font-specification:Verdana"
             x="0 19.275 34.924805 48.89961 65.99961 74.79961 91.89961 109.34961 129.02461 147.32461 157.84961 174.94961 185.54951225 200.94951225 211.47451225 231.14951225"
             y="0"
             sodipodi:role="line"
             id="tspan52">DATA ACQUISITION</tspan></text>
</g><path
         d="m 130.98,2236.77 1274.25,0 c 53.17,0 95.98,-42.81 95.98,-95.97 l 0,-394.42 c 0,-53.16 -42.81,-95.97 -95.98,-95.97 l -1274.25,0 c -53.2105,0 -96.0191,42.81 -96.0191,95.97 l 0,394.42 c 0,53.16 42.8086,95.97 96.0191,95.97 z"
         style="fill:#ffb450;fill-opacity:1;fill-rule:nonzero;stroke:none"
         id="path54" /><path
         d="m 145.699,2214.39 1243.791,0 c 53.21,0 96.02,-28.4 96.02,-63.67 0,-35.27 -42.81,-63.63 -96.02,-63.63 l -1243.791,0 c -53.1599,0 -95.9685,28.36 -95.9685,63.63 0,35.27 42.8086,63.67 95.9685,63.67 z"
         style="fill:#ffffbe;fill-opacity:1;fill-rule:nonzero;stroke:none"
         id="path56" /><g
         id="g58"
         transform="scale(10,10)"><text
           transform="matrix(1,0,0,-1,8.02578,211.772)"
           id="text60"><tspan
             style="fill:#000000;fill-opacity:1;fill-rule:nonzero;stroke:none;font-family:Verdana;font-variant:normal;font-weight:normal;font-size:10.1016;writing-mode:lr;-inkscape-font-specification:Verdana"
             x="0 6.81874769 12.88980929 21.15291809 24.70868129 31.00197809 37.07303969 41.05307009"
             y="0"
             sodipodi:role="line"
             id="tspan62">Raw data</tspan></text>
</g><path
         d="m 145.699,2075.49 1243.791,0 c 53.21,0 96.02,-28.36 96.02,-63.64 0,-35.27 -42.81,-63.67 -96.02,-63.67 l -1243.791,0 c -53.1599,0 -95.9685,28.4 -95.9685,63.67 0,35.28 42.8086,63.64 95.9685,63.64 z"
         style="fill:#ffffbe;fill-opacity:1;fill-rule:nonzero;stroke:none"
         id="path64" /><g
         id="g66"
         transform="scale(10,10)"><text
           transform="matrix(1,0,0,-1,8.11562,197.882)"
           id="text68"><tspan
             style="fill:#000000;fill-opacity:1;fill-rule:nonzero;stroke:none;font-family:Verdana;font-variant:normal;font-weight:normal;font-size:10.1016;writing-mode:lr;-inkscape-font-specification:Verdana"
             x="0 6.9296976 9.6672312 15.7989024 20.3850288 27.22395039 33.29501199 39.58830879 43.14407199 47.73019839 55.68015759 62.59975359 66.15551679 71.44884601 77.42899321 82.69192681 86.67195721 92.69251081 102.52136761 107.78430121"
             y="0"
             sodipodi:role="line"
             id="tspan70">Bio-Rad (QX systems)</tspan></text>
</g><path
         d="m 145.699,1936.62 1243.791,0 c 53.21,0 96.02,-28.4 96.02,-63.67 0,-35.28 -42.81,-63.68 -96.02,-63.68 l -1243.791,0 c -53.1599,0 -95.9685,28.4 -95.9685,63.68 0,35.27 42.8086,63.67 95.9685,63.67 z"
         style="fill:#ffffbe;fill-opacity:1;fill-rule:nonzero;stroke:none"
         id="path72" /><g
         id="g74"
         transform="scale(10,10)"><text
           transform="matrix(1,0,0,-1,8.11562,183.993)"
           id="text76"><tspan
             style="fill:#000000;fill-opacity:1;fill-rule:nonzero;stroke:none;font-family:Verdana;font-variant:normal;font-weight:normal;font-size:10.1016;writing-mode:lr;-inkscape-font-specification:Verdana"
             x="0 5.80842 8.54607947 14.94039227 17.67781364 23.97111044 26.70874243 33.00203923 42.83089603 46.38665923 50.97278563 57.90248323 60.67032163 66.80199283 75.31764163 81.38870323 85.70208643 91.68223363"
             y="0"
             sodipodi:role="line"
             id="tspan78">Fluidigm (BioMark)</tspan></text>
</g><path
         d="m 145.699,1797.71 1243.791,0 c 53.21,0 96.02,-28.4 96.02,-63.67 0,-35.27 -42.81,-63.67 -96.02,-63.67 l -1243.791,0 c -53.1599,0 -95.9685,28.4 -95.9685,63.67 0,35.27 42.8086,63.67 95.9685,63.67 z"
         style="fill:#ffffbe;fill-opacity:1;fill-rule:nonzero;stroke:none"
         id="path80" /><g
         id="g82"
         transform="scale(10,10)"><text
           transform="matrix(1,0,0,-1,8.11562,170.103)"
           id="text84"><tspan
             style="fill:#000000;fill-opacity:1;fill-rule:nonzero;stroke:none;font-family:Verdana;font-variant:normal;font-weight:normal;font-size:10.1016;writing-mode:lr;-inkscape-font-specification:Verdana"
             x="0 5.56587452 11.69754572 16.01092892 25.83978572 32.23409852 35.00193692 41.07299852 45.05302892 49.36641212 52.13425052 58.11439772 61.67016092 66.25628732 73.30720412 79.43887532 85.83318812 91.09612172 95.07615212 101.09670572 103.86454412 106.59195269 112.66301429 116.64304469 119.41088309 125.54255429 131.93686709"
             y="0"
             sodipodi:role="line"
             id="tspan86">Formulatrix (Constellation)</tspan></text>
</g><g
         id="g88"
         transform="scale(10,10)"><text
           transform="matrix(0.922646,0,0,-1,29.9492,227.471)"
           id="text90"><tspan
             style="fill:#ffb450;fill-opacity:1;fill-rule:nonzero;stroke:none;font-family:Verdana;font-variant:normal;font-weight:normal;font-size:18.1246;writing-mode:lr;-inkscape-font-specification:Verdana"
             x="0 11.2916258 22.2207596 34.8717304 47.4683274 53.8481866 63.2911032 74.0208664 83.463783 90.65945111 101.46171271 119.09694851"
             y="0"
             sodipodi:role="line"
             id="tspan92">dPCR systems</tspan></text>
</g><path
         d="m 1565.39,2192.4 1095.04,0 264.96,-180 -264.96,-180 -1095.04,0 264.96,180 -264.96,180 z"
         style="fill:#00c8ff;fill-opacity:1;fill-rule:nonzero;stroke:none"
         id="path94" /><g
         id="g96"
         transform="scale(10,10)"><text
           transform="matrix(0.936671,0,0,-1,192.115,197.279)"
           id="text98"><tspan
             style="fill:#000000;fill-opacity:1;fill-rule:nonzero;stroke:none;font-family:Verdana;font-variant:normal;font-weight:normal;font-size:15.7136;writing-mode:lr;-inkscape-font-specification:Verdana"
             x="0 6.7097072 16.0750128 25.5188864 35.3084592 45.34951183 55.13908463 64.92865743 73.11544303"
             y="0"
             sodipodi:role="line"
             id="tspan100">read_dpcr</tspan></text>
</g><g
         id="g102"
         transform="scale(10,10)"><text
           transform="matrix(0.922646,0,0,-1,34.0672,40.5684)"
           id="text104"><tspan
             style="fill:#ffb450;fill-opacity:1;fill-rule:nonzero;stroke:none;font-family:Verdana;font-variant:normal;font-weight:normal;font-size:18.1246;writing-mode:lr;-inkscape-font-specification:Verdana"
             x="0 11.2916258 22.2207596 34.8717304 47.4683274 53.8481866 63.2911032 74.0208664 83.463783 90.65945111 101.46171271 119.09694851"
             y="0"
             sodipodi:role="line"
             id="tspan106">qPCR systems</tspan></text>
</g><path
         d="m 1565.39,643.922 1095.04,0 264.96,-180 -264.96,-180 -1095.04,0 264.96,180 -264.96,180 z"
         style="fill:#00c8ff;fill-opacity:1;fill-rule:nonzero;stroke:none"
         id="path108" /><g
         id="g110"
         transform="scale(10,10)"><text
           transform="matrix(0.936671,0,0,-1,192.668,42.4328)"
           id="text112"><tspan
             style="fill:#000000;fill-opacity:1;fill-rule:nonzero;stroke:none;font-family:Verdana;font-variant:normal;font-weight:normal;font-size:15.7136;writing-mode:lr;-inkscape-font-specification:Verdana"
             x="0 9.7895728 19.5791456 27.7659312 34.4756384 44.469488 54.2590608"
             y="0"
             sodipodi:role="line"
             id="tspan114">qpcr2pp</tspan></text>
</g><g
         id="g116"
         transform="scale(10,10)"><text
           transform="matrix(0.922646,0,0,-1,89.6738,130.887)"
           id="text118"><tspan
             style="fill:#ffb450;fill-opacity:1;fill-rule:nonzero;stroke:none;font-family:Verdana;font-style:italic;font-variant:normal;font-size:18.1246;writing-mode:lr;-inkscape-font-specification:Verdana-Italic"
             x="0 4.9661404 16.4390122 22.8188714 32.261788 37.2279284 42.24849897 47.21463937 56.65755597"
             y="0"
             sodipodi:role="line"
             id="tspan120">in silico</tspan></text>
<text
           transform="matrix(0.922646,0,0,-1,56.816346,108.2311)"
           id="text122"><tspan
             style="fill:#ffb450;fill-opacity:1;fill-rule:nonzero;stroke:none;font-family:Verdana;font-variant:normal;font-weight:normal;font-size:18.1246;writing-mode:lr;-inkscape-font-specification:Verdana"
             x="0 10.8022616 21.5320248 32.8236506 43.6259122 51.3651164 56.3312568 73.9664926 84.7687542 96.241626"
             y="0"
             sodipodi:role="line"
             id="tspan124">experiment</tspan></text>
</g><path
         d="m 1565.39,1407.28 1095.04,0 264.96,-180 -264.96,-180 -1095.04,0 264.96,180 -264.96,180 z"
         style="fill:#00c8ff;fill-opacity:1;fill-rule:nonzero;stroke:none"
         id="path126" /><g
         id="g128"
         transform="scale(10,10)"><text
           transform="matrix(0.936671,0,0,-1,192.654,118.768)"
           id="text130"><tspan
             style="fill:#000000;fill-opacity:1;fill-rule:nonzero;stroke:none;font-family:Verdana;font-variant:normal;font-weight:normal;font-size:15.7136;writing-mode:lr;-inkscape-font-specification:Verdana"
             x="0 8.1867856 12.492312 27.7816448 37.7754944 47.5650672 57.35464 65.5414256"
             y="0"
             sodipodi:role="line"
             id="tspan132">sim_dpcr</tspan></text>
</g><g
         id="g134"
         transform="scale(0.734779,-1.26522)"><path
           d="m 4329.47,-971.563 -298.39,0 298.39,0 z"
           style="fill:none;stroke:#000000;stroke-opacity:1;stroke-width:8.29714;stroke-linecap:square;stroke-linejoin:miter;stroke-miterlimit:4;stroke-dasharray:none"
           id="path136" /></g><path
         d="m 3120.23,1229.24 -24.37,-42 85.35,42 -85.35,41.99 24.37,-41.99 z"
         style="fill:#000000;fill-opacity:1;fill-rule:evenodd;stroke:none"
         id="path138" /><g
         id="g140"
         transform="scale(-0.734779,1.26522)"><path
           d="m -4246.49,971.563 33.18,-33.198 -116.16,33.198 116.16,33.187 -33.18,-33.187 z"
           style="fill:none;stroke:#000000;stroke-opacity:1;stroke-width:8.29714;stroke-linecap:butt;stroke-linejoin:miter;stroke-miterlimit:4;stroke-dasharray:none"
           id="path142" /></g><g
         id="g144"
         transform="scale(0.734779,-1.26522)"><path
           d="m 4032.4,-1591.36 135.25,0 0,1225.147 -139.44,0"
           style="fill:none;stroke:#000000;stroke-opacity:1;stroke-width:5.60886;stroke-linecap:butt;stroke-linejoin:miter;stroke-miterlimit:4;stroke-dasharray:none"
           id="path146" /></g><path
         d="m 3321.17,1438.42 1633.87,0 c 53.2,0 96.01,-42.82 96.01,-95.98 l 0,-208.01 c 0,-53.16 -42.81,-96.01 -96.01,-96.01 l -1633.87,0 c -53.16,0 -95.97,42.85 -95.97,96.01 l 0,208.01 c 0,53.16 42.81,95.98 95.97,95.98 z"
         style="fill:#d48ddd;fill-opacity:1;fill-rule:nonzero;stroke:none"
         id="path148" /><g
         id="g150"
         transform="scale(10,10)"><text
           transform="matrix(0.922646,0,0,-1,372.876,118.704)"
           id="text152"><tspan
             style="fill:#000000;fill-opacity:1;fill-rule:nonzero;stroke:none;font-family:Verdana;font-variant:normal;font-weight:bold;font-size:18.1246;writing-mode:lr;-inkscape-font-specification:Verdana-Bold"
             x="0 12.6690954 25.3381908 35.9954556"
             y="0"
             sodipodi:role="line"
             id="tspan154">dpcr</tspan></text>
<text
           transform="matrix(0.922646,0,0,-1,420.29951,118.704)"
           id="text156"><tspan
             style="fill:#000000;fill-opacity:1;fill-rule:nonzero;stroke:none;font-family:Verdana;font-variant:normal;font-weight:normal;font-size:18.1246;writing-mode:lr;-inkscape-font-specification:Verdana"
             x="0 9.4429166 14.409057 25.3019416 34.7448582"
             y="0"
             sodipodi:role="line"
             id="tspan158">class</tspan></text>
</g><path
         d="m 3431.45,2192.4 1095.03,0 264.97,-180 -264.97,-180 -1095.03,0 264.96,180 -264.96,180 z"
         style="fill:#00c8ff;fill-opacity:1;fill-rule:nonzero;stroke:none"
         id="path160" /><g
         id="g162"
         transform="scale(10,10)"><text
           transform="matrix(0.936671,0,0,-1,370.72,197.279)"
           id="text164"><tspan
             style="fill:#000000;fill-opacity:1;fill-rule:nonzero;stroke:none;font-family:Verdana;font-variant:normal;font-weight:normal;font-size:15.7136;writing-mode:lr;-inkscape-font-specification:Verdana"
             x="0 9.3653056 18.6677568 24.8589152 31.31733365 40.76120725 48.94799285 55.13915125 65.18002144 74.96959424 84.75916704 92.94595264"
             y="0"
             sodipodi:role="line"
             id="tspan166">extract_dpcr</tspan></text>
</g><path
         d="m 3640.59,2016.66 -285.75,0 0,-565.71"
         style="fill:none;stroke:#000000;stroke-opacity:1;stroke-width:8;stroke-linecap:butt;stroke-linejoin:miter;stroke-miterlimit:4;stroke-dasharray:none"
         id="path168" /><path
         d="m 3560.59,2016.66 -32,-31.99 112,31.99 -112,32.03 32,-32.03 z"
         style="fill:#000000;fill-opacity:1;fill-rule:evenodd;stroke:none"
         id="path170" /><path
         d="m 3560.59,2016.66 -32,-31.99 112,31.99 -112,32.03 32,-32.03 z"
         style="fill:none;stroke:#000000;stroke-opacity:1;stroke-width:8;stroke-linecap:butt;stroke-linejoin:miter;stroke-miterlimit:4;stroke-dasharray:none"
         id="path172" /><path
         d="m 4807.42,2019.55 111.45,0 0,-565.74"
         style="fill:none;stroke:#000000;stroke-opacity:1;stroke-width:8;stroke-linecap:butt;stroke-linejoin:miter;stroke-miterlimit:4;stroke-dasharray:none"
         id="path174" /><path
         d="m 4918.87,1533.81 -31.99,32.03 31.99,-112.03 31.99,112.03 -31.99,-32.03 z"
         style="fill:#000000;fill-opacity:1;fill-rule:evenodd;stroke:none"
         id="path176" /><path
         d="m 4918.87,1533.81 -31.99,32.03 31.99,-112.03 31.99,112.03 -31.99,-32.03 z"
         style="fill:none;stroke:#000000;stroke-opacity:1;stroke-width:8;stroke-linecap:butt;stroke-linejoin:miter;stroke-miterlimit:4;stroke-dasharray:none"
         id="path178" /><path
         d="m 3431.45,271.27 1095.03,0 264.97,180 -264.97,180 -1095.03,0 264.96,-180 -264.96,-180 z"
         style="fill:#00c8ff;fill-opacity:1;fill-rule:nonzero;stroke:none"
         id="path180" /><path
         d="m 3640.59,446.969 -285.75,0 0,565.701"
         style="fill:none;stroke:#000000;stroke-opacity:1;stroke-width:8;stroke-linecap:butt;stroke-linejoin:miter;stroke-miterlimit:4;stroke-dasharray:none"
         id="path182" /><path
         d="m 3560.59,446.969 -32,31.992 112,-31.992 -112,-31.989 32,31.989 z"
         style="fill:#000000;fill-opacity:1;fill-rule:evenodd;stroke:none"
         id="path184" /><path
         d="m 3560.59,446.969 -32,31.992 112,-31.992 -112,-31.989 32,31.989 z"
         style="fill:none;stroke:#000000;stroke-opacity:1;stroke-width:8;stroke-linecap:butt;stroke-linejoin:miter;stroke-miterlimit:4;stroke-dasharray:none"
         id="path186" /><path
         d="m 4807.42,444.121 111.45,0 0,565.699"
         style="fill:none;stroke:#000000;stroke-opacity:1;stroke-width:8;stroke-linecap:butt;stroke-linejoin:miter;stroke-miterlimit:4;stroke-dasharray:none"
         id="path188" /><path
         d="m 4918.87,929.82 -31.99,-31.992 31.99,111.992 31.99,-111.992 -31.99,31.992 z"
         style="fill:#000000;fill-opacity:1;fill-rule:evenodd;stroke:none"
         id="path190" /><path
         d="m 4918.87,929.82 -31.99,-31.988 31.99,111.988 31.99,-111.988 -31.99,31.988 z"
         style="fill:none;stroke:#000000;stroke-opacity:1;stroke-width:8;stroke-linecap:butt;stroke-linejoin:miter;stroke-miterlimit:4;stroke-dasharray:none"
         id="path192" /><g
         id="g194"
         transform="scale(10,10)"><text
           transform="matrix(0.936671,0,0,-1,376.9,40.5133)"
           id="text196"><tspan
             style="fill:#000000;fill-opacity:1;fill-rule:nonzero;stroke:none;font-family:Verdana;font-variant:normal;font-weight:normal;font-size:15.7136;writing-mode:lr;-inkscape-font-specification:Verdana"
             x="0 9.7895728 14.04807861 23.99478741 33.78436021 43.77820981 53.56778261 63.35735541 71.54414101"
             y="0"
             sodipodi:role="line"
             id="tspan198">bind_dpcr</tspan></text>
</g><path
         d="m 5338.2,2419.7 1095,0 265,-180 -265,-180 -1095,0 264.96,180 -264.96,180 z"
         style="fill:#00c8ff;fill-opacity:1;fill-rule:nonzero;stroke:none"
         id="path200" /><g
         id="g202"
         transform="scale(10,10)"><text
           transform="matrix(0.936671,0,0,-1,567.724,220.009)"
           id="text204"><tspan
             style="fill:#000000;fill-opacity:1;fill-rule:nonzero;stroke:none;font-family:Verdana;font-variant:normal;font-weight:normal;font-size:15.7136;writing-mode:lr;-inkscape-font-specification:Verdana"
             x="0 8.1867856 18.1334944 33.4228272 48.71216 58.1560336 64.8657408"
             y="0"
             sodipodi:role="line"
             id="tspan206">summary</tspan></text>
</g><path
         d="m 5338.16,1619.7 1095.04,0 264.96,-180 -264.96,-180 -1095.04,0 265,180 -265,180 z"
         style="fill:#00c8ff;fill-opacity:1;fill-rule:nonzero;stroke:none"
         id="path208" /><g
         id="g210"
         transform="scale(10,10)"><text
           transform="matrix(0.936671,0,0,-1,569.395,140.009)"
           id="text212"><tspan
             style="fill:#000000;fill-opacity:1;fill-rule:nonzero;stroke:none;font-family:Verdana;font-variant:normal;font-weight:normal;font-size:15.7136;writing-mode:lr;-inkscape-font-specification:Verdana"
             x="0 6.1911584 15.556464 23.7432496 29.934408 39.9282576 49.7178304 59.083136 68.57413453 77.87658573"
             y="0"
             sodipodi:role="line"
             id="tspan214">test_peaks</tspan></text>
</g><path
         d="m 5338.16,1219.7 1095.04,0 264.96,-180 -264.96,-180.001 -1095.04,0 265,180.001 -265,180 z"
         style="fill:#00c8ff;fill-opacity:1;fill-rule:nonzero;stroke:none"
         id="path216" /><g
         id="g218"
         transform="scale(10,10)"><text
           transform="matrix(0.936671,0,0,-1,567.185,100.009)"
           id="text220"><tspan
             style="fill:#000000;fill-opacity:1;fill-rule:nonzero;stroke:none;font-family:Verdana;font-variant:normal;font-weight:normal;font-size:15.7136;writing-mode:lr;-inkscape-font-specification:Verdana"
             x="0 6.1911584 15.556464 23.7432496 29.934408 39.9282576 49.7178304 59.20872459 69.15543339 78.52073899"
             y="0"
             sodipodi:role="line"
             id="tspan222">test_panel</tspan></text>
</g><path
         d="m 5338.16,819.699 1095.04,0 264.96,-180 -264.96,-180 -1095.04,0 265,180 -265,180 z"
         style="fill:#00c8ff;fill-opacity:1;fill-rule:nonzero;stroke:none"
         id="path224" /><g
         id="g226"
         transform="scale(10,10)"><text
           transform="matrix(0.936671,0,0,-1,569.395,60.0094)"
           id="text228"><tspan
             style="fill:#000000;fill-opacity:1;fill-rule:nonzero;stroke:none;font-family:Verdana;font-variant:normal;font-weight:normal;font-size:15.7136;writing-mode:lr;-inkscape-font-specification:Verdana"
             x="0 9.7895728 14.04807861 23.58623381 29.77739221 39.77124181 49.56081461 59.0517088 68.9984176 78.3637232"
             y="0"
             sodipodi:role="line"
             id="tspan230">plot_panel</tspan></text>
</g><path
         d="m 5338.16,419.699 1095.04,0 264.96,-180 -264.96,-179.9998 -1095.04,0 265,179.9998 -265,180 z"
         style="fill:#00c8ff;fill-opacity:1;fill-rule:nonzero;stroke:none"
         id="path232" /><g
         id="g234"
         transform="scale(10,10)"><text
           transform="matrix(0.936671,0,0,-1,567.185,20.0094)"
           id="text236"><tspan
             style="fill:#000000;fill-opacity:1;fill-rule:nonzero;stroke:none;font-family:Verdana;font-variant:normal;font-weight:normal;font-size:15.7136;writing-mode:lr;-inkscape-font-specification:Verdana"
             x="0 6.1911584 15.556464 23.7432496 29.934408 39.9282576 48.16201162 57.70016682 67.64687562 77.59358442 83.78474282"
             y="0"
             sodipodi:role="line"
             id="tspan238">test_counts</tspan></text>
</g><g
         id="g240"
         transform="scale(0.958166,-1.04183)"><path
           d="m 5747.47,-2151.91 -320.72,0 0,1918.791 326.19,0"
           style="fill:none;stroke:#000000;stroke-opacity:1;stroke-width:8.00701;stroke-linecap:butt;stroke-linejoin:miter;stroke-miterlimit:4;stroke-dasharray:none"
           id="path242" /></g><path
         d="m 5430.31,2241.93 -30.7,-33.4 107.42,33.4 -107.42,33.36 30.7,-33.36 z"
         style="fill:#000000;fill-opacity:1;fill-rule:evenodd;stroke:none"
         id="path244" /><g
         id="g246"
         transform="scale(-0.958166,1.04183)"><path
           d="m -5667.41,2151.91 32.05,-32.06 -112.11,32.06 112.11,32.02 -32.05,-32.02 z"
           style="fill:none;stroke:#000000;stroke-opacity:1;stroke-width:8.00701;stroke-linecap:butt;stroke-linejoin:miter;stroke-miterlimit:4;stroke-dasharray:none"
           id="path248" /></g><path
         d="m 5435.55,242.871 -30.67,-33.359 107.39,33.359 -107.39,33.359 30.67,-33.359 z"
         style="fill:#000000;fill-opacity:1;fill-rule:evenodd;stroke:none"
         id="path250" /><g
         id="g252"
         transform="scale(-0.958166,1.04183)"><path
           d="m -5672.87,233.119 32,-32.02 -112.07,32.02 112.07,32.02 -32,-32.02 z"
           style="fill:none;stroke:#000000;stroke-opacity:1;stroke-width:8.00701;stroke-linecap:butt;stroke-linejoin:miter;stroke-miterlimit:4;stroke-dasharray:none"
           id="path254" /></g><g
         id="g256"
         transform="scale(0.958166,-1.04183)"><path
           d="m 5308.16,-1185.39 118.55,0"
           style="fill:none;stroke:#000000;stroke-opacity:1;stroke-width:8.00701;stroke-linecap:butt;stroke-linejoin:miter;stroke-miterlimit:4;stroke-dasharray:none"
           id="path258" /></g><g
         id="g260"
         transform="scale(0.958166,-1.04183)"><path
           d="m 5746.25,-1765.91 -322.81,0"
           style="fill:none;stroke:#000000;stroke-opacity:1;stroke-width:8.00701;stroke-linecap:butt;stroke-linejoin:miter;stroke-miterlimit:4;stroke-dasharray:none"
           id="path262" /></g><path
         d="m 5429.14,1839.78 -30.66,-33.36 107.38,33.36 -107.38,33.36 30.66,-33.36 z"
         style="fill:#000000;fill-opacity:1;fill-rule:evenodd;stroke:none"
         id="path264" /><g
         id="g266"
         transform="scale(-0.958166,1.04183)"><path
           d="m -5666.18,1765.91 32,-32.02 -112.07,32.02 112.07,32.02 -32,-32.02 z"
           style="fill:none;stroke:#000000;stroke-opacity:1;stroke-width:8.00701;stroke-linecap:butt;stroke-linejoin:miter;stroke-miterlimit:4;stroke-dasharray:none"
           id="path268" /></g><g
         id="g270"
         transform="scale(0.958166,-1.04183)"><path
           d="m 5746.25,-1382.16 -322.81,0"
           style="fill:none;stroke:#000000;stroke-opacity:1;stroke-width:8.00701;stroke-linecap:butt;stroke-linejoin:miter;stroke-miterlimit:4;stroke-dasharray:none"
           id="path272" /></g><path
         d="m 5429.14,1439.98 -30.66,-33.4 107.38,33.4 -107.38,33.36 30.66,-33.36 z"
         style="fill:#000000;fill-opacity:1;fill-rule:evenodd;stroke:none"
         id="path274" /><g
         id="g276"
         transform="scale(-0.958166,1.04183)"><path
           d="m -5666.18,1382.16 32,-32.06 -112.07,32.06 112.07,32.02 -32,-32.02 z"
           style="fill:none;stroke:#000000;stroke-opacity:1;stroke-width:8.00701;stroke-linecap:butt;stroke-linejoin:miter;stroke-miterlimit:4;stroke-dasharray:none"
           id="path278" /></g><g
         id="g280"
         transform="scale(0.958166,-1.04183)"><path
           d="m 5746.25,-998.363 -322.81,0"
           style="fill:none;stroke:#000000;stroke-opacity:1;stroke-width:8.00701;stroke-linecap:butt;stroke-linejoin:miter;stroke-miterlimit:4;stroke-dasharray:none"
           id="path282" /></g><path
         d="m 5429.14,1040.13 -30.66,-33.36 107.38,33.36 -107.38,33.4 30.66,-33.4 z"
         style="fill:#000000;fill-opacity:1;fill-rule:evenodd;stroke:none"
         id="path284" /><g
         id="g286"
         transform="scale(-0.958166,1.04183)"><path
           d="m -5666.18,998.363 32,-32.02 -112.07,32.02 112.07,32.057 -32,-32.057 z"
           style="fill:none;stroke:#000000;stroke-opacity:1;stroke-width:8.00701;stroke-linecap:butt;stroke-linejoin:miter;stroke-miterlimit:4;stroke-dasharray:none"
           id="path288" /></g><g
         id="g290"
         transform="scale(0.958166,-1.04183)"><path
           d="m 5746.25,-614.62 -322.81,0"
           style="fill:none;stroke:#000000;stroke-opacity:1;stroke-width:8.00701;stroke-linecap:butt;stroke-linejoin:miter;stroke-miterlimit:4;stroke-dasharray:none"
           id="path292" /></g><path
         d="m 5429.14,640.328 -30.66,-33.359 107.38,33.359 -107.38,33.402 30.66,-33.402 z"
         style="fill:#000000;fill-opacity:1;fill-rule:evenodd;stroke:none"
         id="path294" /><g
         id="g296"
         transform="scale(-0.958166,1.04183)"><path
           d="m -5666.18,614.62 32,-32.024 -112.07,32.024 112.07,32.057 -32,-32.057 z"
           style="fill:none;stroke:#000000;stroke-opacity:1;stroke-width:8.00701;stroke-linecap:butt;stroke-linejoin:miter;stroke-miterlimit:4;stroke-dasharray:none"
           id="path298" /></g><path
         d="m 5338.16,2019.7 1095.04,0 264.96,-180 -264.96,-180 -1095.04,0 265,180 -265,180 z"
         style="fill:#00c8ff;fill-opacity:1;fill-rule:nonzero;stroke:none"
         id="path300" /><g
         id="g302"
         transform="scale(10,10)"><text
           transform="matrix(0.936671,0,0,-1,567.185,180.009)"
           id="text304"><tspan
             style="fill:#000000;fill-opacity:1;fill-rule:nonzero;stroke:none;font-family:Verdana;font-variant:normal;font-weight:normal;font-size:15.7136;writing-mode:lr;-inkscape-font-specification:Verdana"
             x="0 15.2893328 24.827488 40.1168208 49.4821264 59.4288352 65.6199936"
             y="0"
             sodipodi:role="line"
             id="tspan306">moments</tspan></text>
</g><g
         id="g308"
         transform="scale(0.787428,-1.21257)"><path
           d="m 8526.07,-1851.54 129.92,0 0,1656.146 -129.92,0"
           style="fill:none;stroke:#000000;stroke-opacity:1;stroke-width:8.18711;stroke-linecap:butt;stroke-linejoin:miter;stroke-miterlimit:4;stroke-dasharray:none"
           id="path310" /></g><g
         id="g312"
         transform="scale(0.787428,-1.21257)"><path
           d="m 8527.17,-1517.64 126.94,0"
           style="fill:none;stroke:#000000;stroke-opacity:1;stroke-width:8.18711;stroke-linecap:butt;stroke-linejoin:miter;stroke-miterlimit:4;stroke-dasharray:none"
           id="path314" /></g><g
         id="g316"
         transform="scale(0.787428,-1.21257)"><path
           d="m 8526.87,-1187.76 127.54,0"
           style="fill:none;stroke:#000000;stroke-opacity:1;stroke-width:8.18711;stroke-linecap:butt;stroke-linejoin:miter;stroke-miterlimit:4;stroke-dasharray:none"
           id="path318" /></g><g
         id="g320"
         transform="scale(0.787428,-1.21257)"><path
           d="m 8527.47,-857.887 127.24,0"
           style="fill:none;stroke:#000000;stroke-opacity:1;stroke-width:8.18711;stroke-linecap:butt;stroke-linejoin:miter;stroke-miterlimit:4;stroke-dasharray:none"
           id="path322" /></g><g
         id="g324"
         transform="scale(0.787428,-1.21257)"><path
           d="m 8527.47,-527.433 126.94,0"
           style="fill:none;stroke:#000000;stroke-opacity:1;stroke-width:8.18711;stroke-linecap:butt;stroke-linejoin:miter;stroke-miterlimit:4;stroke-dasharray:none"
           id="path326" /></g><g
         id="g328"
         transform="scale(0.787428,-1.21257)"><path
           d="m 8653.27,-1015.16 235.58,0"
           style="fill:none;stroke:#000000;stroke-opacity:1;stroke-width:8.18711;stroke-linecap:butt;stroke-linejoin:miter;stroke-miterlimit:4;stroke-dasharray:none"
           id="path330" /></g><path
         d="m 6934.88,1230.95 -25.78,-39.68 90.24,39.68 -90.24,39.73 25.78,-39.73 z"
         style="fill:#000000;fill-opacity:1;fill-rule:evenodd;stroke:none"
         id="path332" /><g
         id="g334"
         transform="scale(-0.787428,1.21257)"><path
           d="m -8807.01,1015.16 32.75,-32.728 -114.59,32.728 114.59,32.76 -32.75,-32.76 z"
           style="fill:none;stroke:#000000;stroke-opacity:1;stroke-width:8.18711;stroke-linecap:butt;stroke-linejoin:miter;stroke-miterlimit:4;stroke-dasharray:none"
           id="path336" /></g><path
         d="m 7168.59,1410.68 886.37,0 c 53.17,0 95.98,-42.81 95.98,-96.01 l 0,-257 c 0,-53.2 -42.81,-96.01 -95.98,-96.01 l -886.37,0 c -53.2,0 -96.01,42.81 -96.01,96.01 l 0,257 c 0,53.2 42.81,96.01 96.01,96.01 z"
         style="fill:#ffb450;fill-opacity:1;fill-rule:nonzero;stroke:none"
         id="path338" /><path
         d="m 7179.45,1388.26 863.95,0 c 53.16,0 95.98,-28.36 95.98,-63.63 0,-35.28 -42.82,-63.68 -95.98,-63.68 l -863.95,0 c -53.2,0 -96.01,28.4 -96.01,63.68 0,35.27 42.81,63.63 96.01,63.63 z"
         style="fill:#ffffbe;fill-opacity:1;fill-rule:nonzero;stroke:none"
         id="path340" /><g
         id="g342"
         transform="scale(10,10)"><text
           transform="matrix(1,0,0,-1,711.077,129.16)"
           id="text344"><tspan
             style="fill:#000000;fill-opacity:1;fill-rule:nonzero;stroke:none;font-family:Verdana;font-variant:normal;font-weight:normal;font-size:10.1016;writing-mode:lr;-inkscape-font-specification:Verdana"
             x="0 3.6769824 10.0712952 14.0513256 23.8801824"
             y="0"
             sodipodi:role="line"
             id="tspan346">.html</tspan></text>
</g><path
         d="m 7179.45,1249.39 863.95,0 c 53.16,0 95.98,-28.4 95.98,-63.67 0,-35.27 -42.82,-63.67 -95.98,-63.67 l -863.95,0 c -53.2,0 -96.01,28.4 -96.01,63.67 0,35.27 42.81,63.67 96.01,63.67 z"
         style="fill:#ffffbe;fill-opacity:1;fill-rule:nonzero;stroke:none"
         id="path348" /><path
         d="m 7179.45,1110.49 863.95,0 c 53.16,0 95.98,-28.4 95.98,-63.68 0,-35.27 -42.82,-63.669 -95.98,-63.669 l -863.95,0 c -53.2,0 -96.01,28.399 -96.01,63.669 0,35.28 42.81,63.68 96.01,63.68 z"
         style="fill:#ffffbe;fill-opacity:1;fill-rule:nonzero;stroke:none"
         id="path350" /><g
         id="g352"
         transform="scale(10,10)"><text
           transform="matrix(1,0,0,-1,711.168,101.381)"
           id="text354"><tspan
             style="fill:#000000;fill-opacity:1;fill-rule:nonzero;stroke:none;font-family:Verdana;font-variant:normal;font-weight:normal;font-size:10.1016;writing-mode:lr;-inkscape-font-specification:Verdana"
             x="0 3.6769824 9.9702792 16.263576"
             y="0"
             sodipodi:role="line"
             id="tspan356">.pdf</tspan><tspan
             style="fill:#000000;fill-opacity:1;fill-rule:nonzero;stroke:none;font-family:Verdana;font-variant:normal;font-weight:normal;font-size:10.1016;writing-mode:lr;-inkscape-font-specification:Verdana"
             x="-0.0902344 3.586748 9.8800448 16.011716 21.2746496"
             y="-13.3789"
             sodipodi:role="line"
             id="tspan358">.docx</tspan></text>
</g><g
         id="g360"
         transform="scale(10,10)"><text
           transform="matrix(0.922646,0,0,-1,718.867,146.137)"
           id="text362"><tspan
             style="fill:#ffb450;fill-opacity:1;fill-rule:nonzero;stroke:none;font-family:Verdana;font-variant:normal;font-weight:normal;font-size:18.1246;writing-mode:lr;-inkscape-font-specification:Verdana"
             x="0 11.2916258 22.5832516 32.0261682 44.20579428 55.00805588 66.29968168 77.30131388 85.04051808"
             y="0"
             sodipodi:role="line"
             id="tspan364">dpcReport</tspan></text>
</g></g></g></svg>